# xmcd
#
# Track frame offsets:
#	187
#	10897
#	23410
#	35237
#	45195
#	56140
#	67820
#	79785
#	91017
#	101492
#
# Disc length: 1502 seconds
#
# Revision: 1
# Processed by: cddbd v1.4b41PL1 Copyright (c) Steve Scherf et al.
# Submitted via: audiograbber 1.80
#
DISCID=6a05dc0a
DTITLE=Various Artist - Best Of The 60's
DYEAR=1900
DGENRE=
TTITLE0=Hank Locklin - Please Help Me I'm Falling
TTITLE1=Hank Snow - I've Been Everywhere
TTITLE2=Skeeter Davis - The End Of The World
TTITLE3=George Hamilton IV - Abilene
TTITLE4=Elvis Presley - Crying In The Chapel
TTITLE5=Jim Reeves - Welcome To My World
TTITLE6=Eddy Arnold - Make The World Go Away
TTITLE7=SSGT. Barry Sadler - Ballad Of The Green Berets
TTITLE8=Jim Ed Brown - Pop A Top
TTITLE9=Charley Pride - The Easy Part's Over
EXTD=RCA 5802-2-R
EXTT0=
EXTT1=
EXTT2=
EXTT3=
EXTT4=
EXTT5=
EXTT6=
EXTT7=
EXTT8=
EXTT9=
PLAYORDER=
